<?xml version="1.0" encoding="UTF-8" standalone="no"?><!DOCTYPE svg PUBLIC "-//W3C//DTD SVG 1.1//EN" "http://www.w3.org/Graphics/SVG/1.1/DTD/svg11.dtd"><svg width="100%" height="100%" viewBox="0 0 2283 1129" version="1.1" xmlns="http://www.w3.org/2000/svg" xmlns:xlink="http://www.w3.org/1999/xlink" xml:space="preserve" xmlns:serif="http://www.serif.com/" style="fill-rule:evenodd;clip-rule:evenodd;stroke-linejoin:round;stroke-miterlimit:2;"><path d="M675.833,0l-505.742,562.943l0,-562.943l-170.091,0l0,1128.91l170.091,0l0,-534.349l510.261,534.349l227.304,0l-544.896,-568.971l507.266,-559.935l-194.193,0Z" style="fill:#fff;fill-rule:nonzero;"/><path d="M1630.43,559.388l-489.31,-489.31l-489.323,489.31l489.323,489.31l489.31,-489.31Zm-489.31,-292.331l294.388,291.433l-294.701,291.744l-288.489,-291.432l288.802,-291.745Z" style="fill:#fff;fill-rule:nonzero;"/><path d="M2112.12,0l0,562.943l-505.742,-562.943l-194.167,0l507.24,559.935l-544.87,568.971l227.279,0l510.26,-534.349l0,534.349l170.092,0l-0,-1128.91l-170.092,0Z" style="fill:#fff;fill-rule:nonzero;"/></svg>