<?xml version="1.0" encoding="UTF-8" standalone="no"?><!DOCTYPE svg PUBLIC "-//W3C//DTD SVG 1.1//EN" "http://www.w3.org/Graphics/SVG/1.1/DTD/svg11.dtd"><svg width="100%" height="100%" viewBox="0 0 1113 742" version="1.1" xmlns="http://www.w3.org/2000/svg" xmlns:xlink="http://www.w3.org/1999/xlink" xml:space="preserve" xmlns:serif="http://www.serif.com/" style="fill-rule:evenodd;clip-rule:evenodd;stroke-linejoin:round;stroke-miterlimit:2;"><g><path d="M26.6,606.971l-0,-55.892l44.967,55.892l31.825,-0l-48.292,-60.167l45.6,-58.583l-29.608,-0l-44.492,58.741l-0,-58.741l-26.6,-0l-0,118.75l26.6,-0Zm105.767,-0l71.566,-0l0,-24.067l-44.966,0l-0,-94.683l-26.6,-0l-0,118.75Zm88.662,-59.692c0,34.675 25.175,61.75 63.017,61.75c38,0 63.016,-27.075 63.016,-61.75c0,-34.675 -25.175,-61.75 -63.016,-61.75c-38,0 -63.017,27.075 -63.017,61.75Zm63.017,-37.05c20.425,0 34.2,15.2 34.2,37.05c-0,21.85 -13.617,37.05 -34.2,37.05c-20.742,0 -34.2,-15.2 -34.2,-37.05c-0,-21.85 13.3,-37.05 34.2,-37.05Zm134.266,53.2c30.717,0 44.334,-15.987 44.334,-37.525c-0,-21.691 -13.617,-37.683 -44.334,-37.683l-37.366,-0l-0,118.75l26.6,-0l-0,-43.542l10.766,0Zm-10.766,-51.141l10.608,-0c10.925,-0 16.784,4.433 16.784,13.616c-0,9.025 -5.859,13.458 -16.784,13.458l-10.608,0l-0,-27.074Zm128.567,20.9c-10.451,-4.75 -15.517,-7.917 -15.517,-15.2c-0,-7.126 4.75,-10.292 11.083,-10.292c7.917,-0 11.713,5.225 12.192,12.35l28.025,-0c-1.425,-20.267 -15.833,-34.517 -39.425,-34.517c-21.533,0 -40.058,11.717 -40.058,33.725c-0,18.367 12.666,28.817 26.124,34.833l9.342,4.117c12.825,5.859 19.633,9.184 19.633,17.259c0,7.6 -5.862,11.4 -13.933,11.4c-8.392,-0 -14.725,-3.959 -15.517,-15.834l-28.024,0c0.474,25.333 18.841,38 43.066,38c22.167,0 42.275,-10.45 42.275,-36.1c0,-19.792 -11.875,-27.075 -29.454,-35.308l-9.812,-4.433Zm100.224,73.783l26.6,-0l0,-94.683l36.1,-0l0,-24.067l-98.641,-0l-0,24.067l35.941,-0l0,94.683Zm79.955,-59.692c-0,34.675 25.175,61.75 63.016,61.75c38,0 63.017,-27.075 63.017,-61.75c0,-34.675 -25.175,-61.75 -63.017,-61.75c-38,0 -63.016,27.075 -63.016,61.75Zm63.016,-37.05c20.425,0 34.2,15.2 34.2,37.05c0,21.85 -13.616,37.05 -34.2,37.05c-20.741,0 -34.2,-15.2 -34.2,-37.05c0,-21.85 13.3,-37.05 34.2,-37.05Zm88.192,37.05c-0,40.692 31.508,61.75 66.658,61.75c13.775,0 26.917,-2.85 37.05,-9.816l0,-28.184c-9.658,8.709 -21.85,13.459 -36.258,13.459c-19.95,-0 -38.633,-12.192 -38.633,-37.209c-0,-25.017 18.683,-37.208 38.633,-37.208c14.408,-0 26.6,4.75 36.258,13.458l0,-28.183c-10.133,-6.967 -23.433,-9.817 -37.208,-9.817c-35.308,0 -66.5,21.059 -66.5,61.75Zm167.042,59.692l-0,-55.892l44.966,55.892l31.825,-0l-48.291,-60.167l45.6,-58.583l-29.613,-0l-44.487,58.741l-0,-58.741l-26.6,-0l-0,118.75l26.6,-0Z" style="fill:#fff;fill-rule:nonzero;"/><path d="M402.196,2.696l-161.838,180.141l0,-180.141l-54.429,-0l0,361.25l54.429,-0l0,-170.992l163.284,170.992l72.737,-0l-174.366,-182.071l162.325,-179.179l-62.142,-0Z" style="fill:#fff;fill-rule:nonzero;"/><path d="M707.667,181.7l-156.579,-156.579l-156.584,156.579l156.584,156.579l156.579,-156.579Zm-156.579,-93.546l94.204,93.259l-94.305,93.358l-92.316,-93.258l92.417,-93.359Z" style="fill:#fff;fill-rule:nonzero;"/><path d="M861.808,2.696l0,180.141l-161.837,-180.141l-62.134,-0l162.317,179.179l-174.358,182.071l72.729,-0l163.283,-170.992l0,170.992l54.43,-0l-0,-361.25l-54.43,-0Z" style="fill:#fff;fill-rule:nonzero;"/><path d="M147.338,705.917c-0,23.558 18.516,35.75 37.124,35.75c7.334,-0 15.034,-1.65 20.9,-5.684l0,-8.983c-5.408,4.858 -13.474,7.15 -21.358,7.15c-14.208,-0 -27.591,-9.167 -27.591,-28.233c-0,-19.067 13.383,-28.234 27.591,-28.234c7.884,0 15.95,2.292 21.358,7.15l0,-8.983c-5.866,-4.033 -13.474,-5.683 -20.808,-5.683c-18.425,-0 -37.216,12.191 -37.216,35.75Zm103.491,34.558l9.075,-20.808l27.775,-0l9.075,20.808l9.075,-0l-31.808,-71.867l-31.625,71.867l8.433,-0Zm12.375,-28.233l10.634,-24.384l10.633,24.384l-21.267,-0Zm100.279,-33.092l29.609,0l-0,-7.425l-38.038,0l0,68.75l8.429,-0l0,-32.542l28.692,0l0,-7.425l-28.692,0l0,-21.358Zm123.296,28.783l0,-7.425l-27.775,0l0,-21.358l28.692,0l-0,-7.425l-37.125,0l-0,68.75l37.125,-0l-0,-7.425l-28.692,-0l0,-25.117l27.775,0Zm171.733,-18.791c0,-9.809 -6.416,-17.417 -23.925,-17.417l-17.966,0l-0,68.75l20.533,-0c17.509,-0 23.925,-9.992 23.925,-20.075c0,-7.425 -4.95,-14.85 -14.758,-16.958c8.525,-2.017 12.191,-7.792 12.191,-14.3Zm-33.458,11.458l0,-21.45l9.809,0c8.891,0 15.033,2.2 15.033,10.725c-0,8.525 -6.142,10.725 -15.033,10.725l-9.809,0Zm0,7.425l12.375,-0c8.892,-0 15.034,4.125 15.034,12.65c-0,8.525 -6.142,12.375 -15.034,12.375l-12.375,-0l0,-25.025Zm90.2,32.45l9.075,-20.808l27.775,-0l9.075,20.808l9.075,-0l-31.808,-71.867l-31.625,71.867l8.433,-0Zm12.375,-28.233l10.633,-24.384l10.634,24.384l-21.267,-0Zm130.896,-21.267c0,-9.808 -6.417,-19.25 -23.925,-19.25l-15.125,0l-0,68.75l8.433,-0l0,-30.342l7.609,0l24.2,30.342l10.633,-0l-25.575,-31.992c7.15,-2.475 13.75,-7.791 13.75,-17.508Zm-24.017,-11.825c9.075,0 15.217,3.575 15.217,11.825c0,8.158 -6.142,11.733 -15.217,11.733l-6.6,0l0,-23.558l6.6,0Z" style="fill:#fff;fill-rule:nonzero;"/><path d="M551.425,693.475l-11.663,11.662l11.663,11.663l11.663,-11.663l-11.663,-11.662Z" style="fill:#fff;fill-rule:nonzero;"/></g></svg>